<svg xmlns="http://www.w3.org/2000/svg" xmlns:xlink="http://www.w3.org/1999/xlink" viewBox="0 0 198.65239 294.10117"><defs><pattern xlink:href="#a" id="b" x="92" y="-15" patternTransform="rotate(103 34.88548125 194.1882242) scale(6.7)" preserveAspectRatio="xMidYMid"/><pattern id="a" width="426.6123" height="55.4942" fill="#ffe367" patternTransform="translate(231.9442 203.8797)" patternUnits="userSpaceOnUse" preserveAspectRatio="xMidYMid"><path stroke-linecap="square" stroke-width=".315146" d="M420.5733 0h.2749c.024 8.9645 5.7641 19.2925 5.7641 27.7471 0 8.4545-5.7641 15.465-5.7641 27.7471h-.2749c0-12.8073 5.6908-20.0005 5.6908-27.7471.0001-7.7466-5.6292-16.6995-5.6908-27.7471zm-16.5687 0h1.0155c.023 9.4488 5.2737 18.9076 5.2737 27.7471 0 8.8395-5.2737 15.1536-5.2737 27.7471h-1.0155c0-12.8543 5.2089-19.5988 5.209-27.7471 0-8.1483-5.1498-16.3841-5.209-27.7471zm-16.5687 0h1.7561c.023 9.933 4.7832 18.5227 4.7832 27.7471s-4.7832 14.8421-4.7832 27.7471h-1.7561c0-12.9013 4.7271-19.1972 4.7271-27.7471 0-8.55-4.6704-16.0687-4.7271-27.7471zm-16.5687 0h2.4967c.022 10.4173 4.2928 18.1377 4.2928 27.7471 0 9.6093-4.2928 14.5307-4.2928 27.7471h-2.4967c0-12.9482 4.2452-18.7955 4.2452-27.7471.0001-8.9516-4.191-15.7533-4.2452-27.7471zm-16.5687 0h3.2373c.02 10.9016 3.8024 17.7528 3.8024 27.7471 0 9.9943-3.8024 14.2192-3.8024 27.7471h-3.2373c0-12.9952 3.7634-18.3938 3.7634-27.7471S354.3502 12.3092 354.2985 0zm-16.5687 0h3.9779c.02 11.3858 3.3119 17.3679 3.3119 27.7471s-3.3119 13.9077-3.3119 27.7471h-3.9779c0-13.0422 3.2815-17.9921 3.2815-27.7471 0-9.755-3.2322-15.1225-3.2815-27.7471zM321.161 0h4.7186c.019 11.8701 2.8215 16.983 2.8215 27.7471s-2.8215 13.5963-2.8215 27.7471h-4.7186c0-13.0891 2.7997-17.5905 2.7997-27.7471C323.9608 17.5904 321.2079 12.94 321.161 0Zm-16.5687 0h5.4592c.018 12.3544 2.3311 16.598 2.3311 27.7471 0 11.149-2.3311 13.2848-2.3311 27.7471h-5.4592c0-13.1361 2.3179-17.1888 2.3179-27.7471S304.6367 13.2554 304.5923 0zm-16.5687 0h6.1998c.017 12.8386 1.8406 16.2131 1.8406 27.7471 0 11.534-1.8406 12.9733-1.8406 27.7471h-6.1998c0-13.1831 1.836-16.7871 1.836-27.7471S288.0655 13.5708 288.0236 0zm-16.5687 0h6.9404c.016 13.3229 1.3502 15.8282 1.3502 27.7471 0 11.9189-1.3502 12.6619-1.3502 27.7471h-6.9404c0-13.23 1.3541-16.3854 1.3541-27.7471.0001-11.3617-1.3147-13.861-1.3541-27.7471Zm-16.5687 0h7.6811c.015 13.8072.8597 15.4432.8597 27.7471 0 12.3038-.8597 12.3504-.8597 27.7471h-7.6811c0-13.277.8723-15.9838.8723-27.7471 0-11.7634-.8353-13.5456-.8723-27.7471zm-16.5687 0h8.4217c.014 14.2914.3692 15.0583.3692 27.7471s-.3692 12.039-.3692 27.7471h-8.4217c0-13.324.3904-15.5821.3904-27.7471S238.352 14.5169 238.3175 0zm-16.5687 0h9.1623c.013 14.7757-.1212 14.6734-.1212 27.7471 0 13.0737.1212 11.7275.1212 27.7471h-9.1623c0-13.3709-.091-15.1804-.091-27.7471.0001-12.5667.1235-12.9148.091-27.7471zm-16.5687 0h9.9029c.012 15.26-.6116 14.2884-.6116 27.7471 0 13.4586.6116 11.416.6116 27.7471h-9.9029c0-13.4179-.5733-14.7788-.5733-27.7471 0-12.9684.6028-12.5994.5733-27.7471zm-16.5687 0h10.6435c.011 15.7442-1.102 13.9035-1.102 27.7471s1.102 11.1046 1.102 27.7471h-10.6435c0-13.4649-1.0552-14.3771-1.0552-27.7471 0-13.3701 1.0823-12.284 1.0552-27.7471zm-16.5688 0h11.3842c.01 16.2285-1.5925 13.5186-1.5925 27.7471s1.5925 10.7931 1.5925 27.7471h-11.3842c0-13.5118-1.537-13.9754-1.537-27.7471.0001-13.7717 1.5617-11.9686 1.537-27.7471zm-16.5687 0h12.1248c.01 16.7128-2.0829 13.1336-2.0829 27.7471 0 14.6134 2.0829 10.4816 2.0829 27.7471h-12.1248c0-13.5588-2.0188-13.5737-2.0188-27.7471 0-14.1734 2.041-11.6532 2.0188-27.7471zm-16.5687 0h12.8654c.01 17.197-2.5733 12.7487-2.5733 27.7471s2.5733 10.1702 2.5733 27.7471h-12.8654c0-13.6058-2.5007-13.1721-2.5007-27.7471 0-14.5751 2.5204-11.3378 2.5007-27.7471zm-16.5687 0h13.606c.01 17.6813-3.0638 12.3638-3.0638 27.7471s3.0638 9.8587 3.0638 27.7471h-13.606c0-13.6527-2.9826-12.7704-2.9826-27.7471.0001-14.9767 2.9999-11.0224 2.9826-27.7471zm-16.5687 0h14.3466c.01 18.1656-3.5542 11.9788-3.5542 27.7471 0 15.7682 3.5542 9.5472 3.5542 27.7471h-14.3466c0-13.6997-3.4644-12.3687-3.4644-27.7471S105.7826 17.04 105.7678 0zM89.1991 0h15.0872c0 18.6498-4.0446 11.5939-4.0446 27.7471s4.0446 9.2358 4.0446 27.7471H89.1991c0-13.7467-3.9463-11.967-3.9463-27.7471S89.2114 17.3554 89.1991 0ZM72.6304 0h15.8278c0 19.1341-4.5351 11.209-4.5351 27.7471s4.5351 8.9243 4.5351 27.7471H72.6304c0-13.7936-4.4282-11.5654-4.4282-27.7471.0001-16.1818 4.438-10.0763 4.4282-27.7471ZM56.0617 0h16.5684c0 19.6184-5.0255 10.824-5.0255 27.7471 0 16.923 5.0255 8.6129 5.0255 27.7471H56.0617c0-13.8406-4.91-11.1637-4.91-27.7471 0-16.5834 4.9174-9.7609 4.91-27.7471zM39.493 0h17.3091c0 20.1026-5.516 10.4391-5.516 27.7471 0 17.3079 5.516 8.3014 5.516 27.7471H39.493c0-13.8876-5.3919-10.762-5.3919-27.7471S39.4979 18.3016 39.493 0ZM22.9242 0H40.974c.0009 20.5869-6.0064 10.0542-6.0064 27.7471s6.0064 7.9899 6.0064 27.7471H22.9242c0-13.9346-5.8737-10.3604-5.8737-27.7471 0-17.3868 5.8762-9.1301 5.8737-27.7471zM6.3555 0h18.7904c0 21.0712-6.4969 9.6693-6.4969 27.7471s6.4969 7.6785 6.4969 27.7471H6.3555C6.3555 41.5127 0 45.5355 0 27.7471 0 9.9586 6.3555 18.9324 6.3555 0Z" paint-order="markers fill stroke"/></pattern></defs><path fill="#001c98" d="M143.446693 3.9998799 60.895135 18.2318831l12.98823 32.915021h.0116c-23.37132 23.310169-49.57005 69.825183-62.23333 108.282013a95.30895 93.954107 0 0 0-7.6098999 35.77353c-.001.0233-.003.0468-.003.0705a95.30895 93.954107 0 0 0-.0311.87485 95.30895 93.954107 0 0 0 .008.19154c-.0929 3.30472.0667 6.35728.5180699 9.0976a95.30895 93.954107 0 0 0 94.781788 84.66422 95.30895 93.954107 0 0 0 94.78386-84.67229c.44951-2.73306.60953-5.77704.5181-9.07139a95.30895 93.954107 0 0 0 .008-.20948 95.30895 93.954107 0 0 0-7.86187-37.35593c-12.99349-39.09112-39.81266-86.294954-63.39314-108.995815h.008z"/><path fill="url(#b)" stroke="#ffe367" stroke-linejoin="round" stroke-width="8" d="M149.12071 5.4493625 66.569155 19.681366l12.988229 32.915021h.01162C56.197665 75.906556 29.99893 122.42157 17.335649 160.8784a95.30895 93.954107 0 0 0-7.6099037 35.77353c-.0011.0233-.0034.0468-.0034.0705a95.30895 93.954107 0 0 0-.03112.87485 95.30895 93.954107 0 0 0 .0082.19154c-.09288 3.30472.06672 6.35728.5180727 9.0976a95.30895 93.954107 0 0 0 94.781792 84.66422 95.30895 93.954107 0 0 0 94.78386-84.67229c.44951-2.73306.60953-5.77704.5181-9.07139a95.30895 93.954107 0 0 0 .008-.20948 95.30895 93.954107 0 0 0-7.86187-37.35593c-12.99327-39.09112-39.81244-86.294954-63.39292-108.995815h.008z" transform="translate(-5.673797 -1.4494829)"/></svg>