<?xml version="1.0" encoding="UTF-8" standalone="no"?>
<!-- Created with Inkscape (http://www.inkscape.org/) -->

<svg
   width="210mm"
   height="297mm"
   viewBox="0 0 210 297"
   version="1.1"
   id="svg167"
   inkscape:version="1.2.2 (b0a8486541, 2022-12-01)"
   sodipodi:docname="logo.svg"
   xmlns:inkscape="http://www.inkscape.org/namespaces/inkscape"
   xmlns:sodipodi="http://sodipodi.sourceforge.net/DTD/sodipodi-0.dtd"
   xmlns="http://www.w3.org/2000/svg"
   xmlns:svg="http://www.w3.org/2000/svg">
  <sodipodi:namedview
     id="namedview169"
     pagecolor="#ffffff"
     bordercolor="#000000"
     borderopacity="0.25"
     inkscape:showpageshadow="2"
     inkscape:pageopacity="0.0"
     inkscape:pagecheckerboard="0"
     inkscape:deskcolor="#d1d1d1"
     inkscape:document-units="mm"
     showgrid="false"
     inkscape:zoom="0.315"
     inkscape:cx="36.507937"
     inkscape:cy="625.39683"
     inkscape:window-width="1896"
     inkscape:window-height="1032"
     inkscape:window-x="8"
     inkscape:window-y="8"
     inkscape:window-maximized="1"
     inkscape:current-layer="layer1" />
  <defs
     id="defs164">
    <inkscape:path-effect
       effect="spiro"
       id="path-effect1460"
       is_visible="true"
       lpeversion="1" />
    <inkscape:path-effect
       effect="spiro"
       id="path-effect1456"
       is_visible="true"
       lpeversion="1" />
    <inkscape:path-effect
       effect="spiro"
       id="path-effect1448"
       is_visible="true"
       lpeversion="1" />
    <inkscape:path-effect
       effect="spiro"
       id="path-effect1444"
       is_visible="true"
       lpeversion="1" />
  </defs>
  <g
     inkscape:label="Шар 1"
     inkscape:groupmode="layer"
     id="layer1">
    <path
       id="path3134"
       style="fill:#ffe08f;fill-opacity:1;stroke:#000000;stroke-width:12;stroke-dasharray:none;stroke-dashoffset:0;stroke-linecap:butt;stroke-linejoin:round"
       d="M 147.98896,9.8070547 67.544707,23.675758 80.201386,55.750543 h 0.01145 C 57.438089,78.46568 31.908131,123.7933 19.568106,161.26844 a 92.875991,91.555732 0 0 0 -7.415641,34.86035 c -0.001,0.0227 -0.0029,0.0456 -0.0039,0.0687 a 92.875991,91.555732 0 0 0 -0.03041,0.85252 92.875991,91.555732 0 0 0 0.0076,0.18666 c -0.09047,3.22036 0.065,6.19499 0.504857,8.86537 a 92.875991,91.555732 0 0 0 92.362277,82.50298 92.875991,91.555732 0 0 0 92.36432,-82.51086 c 0.43802,-2.6633 0.59395,-5.62956 0.50486,-8.83982 a 92.875991,91.555732 0 0 0 0.008,-0.20413 92.875991,91.555732 0 0 0 -7.66118,-36.40235 C 177.54718,122.55463 151.41261,76.555758 128.43408,54.4344 h 0.008 z" />
    <path
       id="path945"
       style="fill:#004dd6;fill-opacity:1;stroke:#000000;stroke-width:12;stroke-dasharray:none;stroke-linejoin:round;stroke-linecap:butt;stroke-dashoffset:0"
       d="M 147.99028,9.8079767 67.545989,23.676679 80.202642,55.751464 h 0.0121 c -3.975289,3.964925 -8.036449,8.61911 -12.09483,13.799935 A 18.758491,18.758491 0 0 1 82.44631,87.773163 18.758491,18.758491 0 0 1 63.688215,106.53131 18.758491,18.758491 0 0 1 48.491591,98.650117 c -3.339961,5.651993 -6.567495,11.506343 -9.637362,17.447833 a 18.758491,18.758491 0 0 1 2.88178,9.99093 18.758491,18.758491 0 0 1 -16.041319,18.55969 c -2.281429,5.64201 -4.3447,11.21454 -6.125008,16.62081 a 92.875993,91.555734 0 0 0 -5.022977,15.43431 18.758491,18.758491 0 0 1 14.019946,-6.31358 18.758491,18.758491 0 0 1 18.758085,18.76004 18.758491,18.758491 0 0 1 -18.758085,18.75809 18.758491,18.758491 0 0 1 -16.44795,-9.76309 c -0.03878,2.86892 0.115037,5.54316 0.512708,7.95783 a 92.875993,91.555734 0 0 0 14.271391,40.2624 18.758491,18.758491 0 0 1 18.426104,-15.30861 18.758491,18.758491 0 0 1 18.758075,18.7581 18.758491,18.758491 0 0 1 -17.035295,18.67164 92.875993,91.555734 0 0 0 57.942046,20.11943 92.875993,91.555734 0 0 0 44.91213,-11.50157 18.758491,18.758491 0 0 1 18.35148,-14.91574 18.758491,18.758491 0 0 1 1.84259,0.0905 92.875993,91.555734 0 0 0 27.25806,-56.18392 c 0.43805,-2.6633 0.59395,-5.62957 0.50486,-8.8398 a 92.875993,91.555734 0 0 0 0.008,-0.2043 92.875993,91.555734 0 0 0 -0.12778,-3.06449 18.758491,18.758491 0 0 1 -12.32466,-17.60889 18.758491,18.758491 0 0 1 5.68693,-13.43851 92.875993,91.555734 0 0 0 -0.89574,-2.29047 c -3.51512,-10.57544 -8.07268,-21.7603 -13.30884,-32.87428 a 18.758491,18.758491 0 0 1 -15.42843,-18.44773 18.758491,18.758491 0 0 1 1.70707,-7.79673 C 152.19295,82.512079 139.91884,65.491602 128.43408,54.435371 h 0.008 z M 124.3526,80.068788 A 18.758491,18.758491 0 0 1 143.11265,98.826927 18.758491,18.758491 0 0 1 124.3526,117.58697 18.758491,18.758491 0 0 1 105.59452,98.826927 18.758491,18.758491 0 0 1 124.3526,80.068788 Z M 82.047219,126.48765 a 18.758491,18.758491 0 0 1 18.758101,18.75812 18.758491,18.758491 0 0 1 -18.758101,18.76004 18.758491,18.758491 0 0 1 -18.758078,-18.76004 18.758491,18.758491 0 0 1 18.758078,-18.75812 z m 63.061261,13.5701 a 18.758491,18.758491 0 0 1 18.75811,18.7581 18.758491,18.758491 0 0 1 -18.75811,18.76004 18.758491,18.758491 0 0 1 -18.76003,-18.76004 18.758491,18.758491 0 0 1 18.76003,-18.7581 z m -50.288709,50.28873 a 18.758491,18.758491 0 0 1 18.758099,18.75809 18.758491,18.758491 0 0 1 -18.758099,18.76005 18.758491,18.758491 0 0 1 -18.760052,-18.76005 18.758491,18.758491 0 0 1 18.760052,-18.75809 z m 69.445569,12.77255 a 18.758491,18.758491 0 0 1 18.75809,18.75807 18.758491,18.758491 0 0 1 -18.75809,18.75812 18.758491,18.758491 0 0 1 -18.75807,-18.75812 18.758491,18.758491 0 0 1 18.75807,-18.75807 z m -52.68331,41.50784 a 18.758491,18.758491 0 0 1 18.75809,18.75809 18.758491,18.758491 0 0 1 -18.75809,18.75811 18.758491,18.758491 0 0 1 -18.758092,-18.75811 18.758491,18.758491 0 0 1 18.758092,-18.75809 z" />
  </g>
</svg>
