<svg xmlns="http://www.w3.org/2000/svg" width="210mm" height="297mm" viewBox="0 0 210 297"><path fill="#ffe367" d="M149.12071 5.4493625 66.569155 19.681366l12.988229 32.915021h.01162C56.197665 75.906556 29.99893 122.42157 17.335649 160.8784a95.30895 93.954107 0 0 0-7.6099037 35.77353c-.0011.0233-.0034.0468-.0034.0705a95.30895 93.954107 0 0 0-.03112.87485 95.30895 93.954107 0 0 0 .0082.19154c-.09288 3.30472.06672 6.35728.5180727 9.0976a95.30895 93.954107 0 0 0 94.781792 84.66422 95.30895 93.954107 0 0 0 94.78386-84.67229c.44951-2.73306.60953-5.77704.5181-9.07139a95.30895 93.954107 0 0 0 .008-.20948 95.30895 93.954107 0 0 0-7.86187-37.35593c-12.99327-39.09112-39.81244-86.294954-63.39292-108.995815h.008z"/><path fill="#001c98" d="M125.83523 9.4653165 75.836841 18.085105a19.206924 19.206924 0 0 1-6.201363 9.364055l9.923544 25.14847h.01162c-4.079419 4.068778-8.24659 8.844188-12.411276 14.160717a19.249885 19.249885 0 0 1 14.701383 18.69989 19.249885 19.249885 0 0 1-19.249103 19.249093A19.249885 19.249885 0 0 1 47.0163 96.619651c-3.427443 5.800049-6.739039 11.808009-9.889311 17.905139a19.249885 19.249885 0 0 1 2.957379 10.2529 19.249885 19.249885 0 0 1-16.461958 19.04548c-2.341186 5.7898-4.458242 11.50864-6.28518 17.05652a95.308954 93.954108 0 0 0-5.155121 15.8383 19.249885 19.249885 0 0 1 14.387432-6.47939 19.249885 19.249885 0 0 1 19.249951 19.25167 19.249885 19.249885 0 0 1-19.249951 19.24996 19.249885 19.249885 0 0 1-16.8785697-10.01936c-.03973 2.94407.118034 5.68851.5261187 8.16639a95.308954 93.954108 0 0 0 14.644898 41.31699 19.249885 19.249885 0 0 1 18.908613-15.70913 19.249885 19.249885 0 0 1 19.249951 19.24909 19.249885 19.249885 0 0 1-17.481682 19.161 95.308954 93.954108 0 0 0 59.45995 20.64608 95.308954 93.954108 0 0 0 46.08883-11.80216 19.249885 19.249885 0 0 1 18.83164-15.30707 19.249885 19.249885 0 0 1 1.89145.0932 95.308954 93.954108 0 0 0 27.97155-57.65576c.44948-2.73301.60983-5.77715.51841-9.07149a95.308954 93.954108 0 0 0 .008-.20958 95.308954 93.954108 0 0 0-.13177-3.14473 19.249885 19.249885 0 0 1-12.64737-18.07026 19.249885 19.249885 0 0 1 5.83605-13.79028 95.308954 93.954108 0 0 0-.91876-2.35086c-3.60721-10.85242-8.28443-22.32981-13.6577-33.73488a19.249885 19.249885 0 0 1-15.83232-18.93173 19.249885 19.249885 0 0 1 1.75115-8.000429c-11.27415-19.516113-23.86971-36.982679-35.65532-48.328515h.008l10.1203-23.104731a19.206924 19.206924 0 0 1-13.3617-18.2892525 19.206924 19.206924 0 0 1 .0149-.387531zM103.58939 23.000679a19.206924 19.206924 0 0 1 19.20717 19.207178 19.206924 19.206924 0 0 1-19.20717 19.206325 19.206924 19.206924 0 0 1-19.207178-19.206325 19.206924 19.206924 0 0 1 19.207178-19.207178Zm21.27572 54.551234a19.249885 19.249885 0 0 1 19.25165 19.249078 19.249885 19.249885 0 0 1-19.25165 19.251679 19.249885 19.249885 0 0 1-19.2491-19.251679 19.249885 19.249885 0 0 1 19.2491-19.249078zM81.451338 125.1866a19.249885 19.249885 0 0 1 19.249952 19.24911 19.249885 19.249885 0 0 1-19.249952 19.25166 19.249885 19.249885 0 0 1-19.249095-19.25166 19.249885 19.249885 0 0 1 19.249095-19.24911Zm64.713442 13.92547a19.249885 19.249885 0 0 1 19.2491 19.2491 19.249885 19.249885 0 0 1-19.2491 19.25165 19.249885 19.249885 0 0 1-19.25166-19.25165 19.249885 19.249885 0 0 1 19.25166-19.2491zm-51.605815 51.60581a19.249885 19.249885 0 0 1 19.249105 19.24994 19.249885 19.249885 0 0 1-19.249105 19.25168 19.249885 19.249885 0 0 1-19.251672-19.25168 19.249885 19.249885 0 0 1 19.251672-19.24994Zm71.264685 13.10763a19.249885 19.249885 0 0 1 19.2491 19.24909 19.249885 19.249885 0 0 1-19.2491 19.24996 19.249885 19.249885 0 0 1-19.24994-19.24996 19.249885 19.249885 0 0 1 19.24994-19.24909zm-54.06361 42.59508a19.249885 19.249885 0 0 1 19.24911 19.24909 19.249885 19.249885 0 0 1-19.24911 19.24994 19.249885 19.249885 0 0 1-19.24909-19.24994 19.249885 19.249885 0 0 1 19.24909-19.24909z"/></svg>
