<?xml version="1.0" encoding="UTF-8" standalone="no"?>
<!-- Created with Inkscape (http://www.inkscape.org/) -->

<svg
   width="210mm"
   height="297mm"
   viewBox="0 0 210 297"
   version="1.1"
   id="svg167"
   inkscape:version="1.2.2 (b0a8486541, 2022-12-01)"
   sodipodi:docname="klunok.svg"
   xmlns:inkscape="http://www.inkscape.org/namespaces/inkscape"
   xmlns:sodipodi="http://sodipodi.sourceforge.net/DTD/sodipodi-0.dtd"
   xmlns="http://www.w3.org/2000/svg"
   xmlns:svg="http://www.w3.org/2000/svg">
  <sodipodi:namedview
     id="namedview169"
     pagecolor="#ffffff"
     bordercolor="#000000"
     borderopacity="0.25"
     inkscape:showpageshadow="2"
     inkscape:pageopacity="0.0"
     inkscape:pagecheckerboard="0"
     inkscape:deskcolor="#d1d1d1"
     inkscape:document-units="mm"
     showgrid="false"
     inkscape:zoom="0.63"
     inkscape:cx="276.98413"
     inkscape:cy="622.22222"
     inkscape:window-width="1896"
     inkscape:window-height="1152"
     inkscape:window-x="8"
     inkscape:window-y="8"
     inkscape:window-maximized="1"
     inkscape:current-layer="layer1" />
  <defs
     id="defs164">
    <inkscape:path-effect
       effect="spiro"
       id="path-effect1460"
       is_visible="true"
       lpeversion="1" />
    <inkscape:path-effect
       effect="spiro"
       id="path-effect1456"
       is_visible="true"
       lpeversion="1" />
    <inkscape:path-effect
       effect="spiro"
       id="path-effect1448"
       is_visible="true"
       lpeversion="1" />
    <inkscape:path-effect
       effect="spiro"
       id="path-effect1444"
       is_visible="true"
       lpeversion="1" />
  </defs>
  <g
     inkscape:label="Шар 1"
     inkscape:groupmode="layer"
     id="layer1">
    <path
       id="path3134"
       style="fill:#ffe367;stroke:none;stroke-width:3.93004;stroke-dasharray:none;fill-opacity:1"
       d="M 149.12071,5.4493625 66.569155,19.681366 79.557384,52.596387 h 0.01162 C 56.197665,75.906556 29.99893,122.42157 17.335649,160.8784 a 95.30895,93.954107 0 0 0 -7.6099037,35.77353 c -0.0011,0.0233 -0.0034,0.0468 -0.0034,0.0705 a 95.30895,93.954107 0 0 0 -0.03112,0.87485 95.30895,93.954107 0 0 0 0.0082,0.19154 c -0.09288,3.30472 0.06672,6.35728 0.5180727,9.0976 a 95.30895,93.954107 0 0 0 94.781792,84.66422 95.30895,93.954107 0 0 0 94.78386,-84.67229 c 0.44951,-2.73306 0.60953,-5.77704 0.5181,-9.07139 a 95.30895,93.954107 0 0 0 0.008,-0.20948 95.30895,93.954107 0 0 0 -7.86187,-37.35593 C 179.45411,121.15043 152.63494,73.946596 129.05446,51.245735 h 0.008 z" />
    <path
       id="path945"
       style="fill:#001c98;stroke:none;stroke-width:3.93004;stroke-dasharray:none;fill-opacity:1"
       d="M 125.83523,9.4653165 75.836841,18.085105 a 19.206924,19.206924 0 0 1 -6.201363,9.364055 l 9.923544,25.14847 h 0.01162 c -4.079419,4.068778 -8.24659,8.844188 -12.411276,14.160717 A 19.249885,19.249885 0 0 1 81.860749,85.458237 19.249885,19.249885 0 0 1 62.611646,104.70733 19.249885,19.249885 0 0 1 47.0163,96.619651 c -3.427443,5.800049 -6.739039,11.808009 -9.889311,17.905139 a 19.249885,19.249885 0 0 1 2.957379,10.2529 19.249885,19.249885 0 0 1 -16.461958,19.04548 c -2.341186,5.7898 -4.458242,11.50864 -6.28518,17.05652 a 95.308954,93.954108 0 0 0 -5.155121,15.8383 19.249885,19.249885 0 0 1 14.387432,-6.47939 19.249885,19.249885 0 0 1 19.249951,19.25167 19.249885,19.249885 0 0 1 -19.249951,19.24996 19.249885,19.249885 0 0 1 -16.8785697,-10.01936 c -0.03973,2.94407 0.118034,5.68851 0.5261187,8.16639 a 95.308954,93.954108 0 0 0 14.644898,41.31699 19.249885,19.249885 0 0 1 18.908613,-15.70913 19.249885,19.249885 0 0 1 19.249951,19.24909 19.249885,19.249885 0 0 1 -17.481682,19.161 95.308954,93.954108 0 0 0 59.45995,20.64608 95.308954,93.954108 0 0 0 46.08883,-11.80216 19.249885,19.249885 0 0 1 18.83164,-15.30707 19.249885,19.249885 0 0 1 1.89145,0.0932 95.308954,93.954108 0 0 0 27.97155,-57.65576 c 0.44948,-2.73301 0.60983,-5.77715 0.51841,-9.07149 a 95.308954,93.954108 0 0 0 0.008,-0.20958 95.308954,93.954108 0 0 0 -0.13177,-3.14473 19.249885,19.249885 0 0 1 -12.64737,-18.07026 19.249885,19.249885 0 0 1 5.83605,-13.79028 95.308954,93.954108 0 0 0 -0.91876,-2.35086 c -3.60721,-10.85242 -8.28443,-22.32981 -13.6577,-33.73488 a 19.249885,19.249885 0 0 1 -15.83232,-18.93173 19.249885,19.249885 0 0 1 1.75115,-8.000429 C 153.43383,80.059148 140.83827,62.592582 129.05266,51.246746 h 0.008 l 10.1203,-23.104731 a 19.206924,19.206924 0 0 1 -13.3617,-18.2892525 19.206924,19.206924 0 0 1 0.0149,-0.387531 z M 103.58939,23.000679 A 19.206924,19.206924 0 0 1 122.79656,42.207857 19.206924,19.206924 0 0 1 103.58939,61.414182 19.206924,19.206924 0 0 1 84.382212,42.207857 19.206924,19.206924 0 0 1 103.58939,23.000679 Z m 21.27572,54.551234 a 19.249885,19.249885 0 0 1 19.25165,19.249078 19.249885,19.249885 0 0 1 -19.25165,19.251679 19.249885,19.249885 0 0 1 -19.2491,-19.251679 19.249885,19.249885 0 0 1 19.2491,-19.249078 z M 81.451338,125.1866 A 19.249885,19.249885 0 0 1 100.70129,144.43571 19.249885,19.249885 0 0 1 81.451338,163.68737 19.249885,19.249885 0 0 1 62.202243,144.43571 19.249885,19.249885 0 0 1 81.451338,125.1866 Z m 64.713442,13.92547 a 19.249885,19.249885 0 0 1 19.2491,19.2491 19.249885,19.249885 0 0 1 -19.2491,19.25165 19.249885,19.249885 0 0 1 -19.25166,-19.25165 19.249885,19.249885 0 0 1 19.25166,-19.2491 z M 94.558965,190.71788 A 19.249885,19.249885 0 0 1 113.80807,209.96782 19.249885,19.249885 0 0 1 94.558965,229.2195 19.249885,19.249885 0 0 1 75.307293,209.96782 19.249885,19.249885 0 0 1 94.558965,190.71788 Z m 71.264685,13.10763 a 19.249885,19.249885 0 0 1 19.2491,19.24909 19.249885,19.249885 0 0 1 -19.2491,19.24996 19.249885,19.249885 0 0 1 -19.24994,-19.24996 19.249885,19.249885 0 0 1 19.24994,-19.24909 z m -54.06361,42.59508 a 19.249885,19.249885 0 0 1 19.24911,19.24909 19.249885,19.249885 0 0 1 -19.24911,19.24994 19.249885,19.249885 0 0 1 -19.24909,-19.24994 19.249885,19.249885 0 0 1 19.24909,-19.24909 z" />
  </g>
</svg>
