<svg xmlns="http://www.w3.org/2000/svg" viewBox="0 0 81.325523 81.32579"><g transform="translate(-82.400655 -120.37611)"><path fill="#3152bc" d="M82.400655 120.37611v81.32579h81.325265v-68.9653l-12.35997-12.36049Z"/><rect width="38.15498" height="25.794931" x="103.98584" y="120.37636" fill="#f8f66d" rx="3.3631568" ry="3.891892"/><path fill="#3152bc" d="M128.35501 125.19646h8.7774429v18.27141H128.35501z"/><rect width="66.637817" height="31.527441" x="89.744377" y="163.90486" fill="#f8f66d" rx="1" ry="1"/><path fill="#3152bc" d="m143.61552401 166.08856775-3.3047072 1.36890866-.74414363.30798544-9.02632098 3.7387921-1.85466534.76843319 2.17712686 5.25548997-.00051816-.00000185-33.47340904 13.86530236.7684278 1.8551828 33.47340905-13.86530237 2.17713068 5.25549922 1.85466534-.7684332 9.0263219-3.73879248.085268-.03513515.73690547-.30540942 3.22667737-1.33634952-3.43803226-.74879028-1.77612107-.38706117.39687545.95808199-9.0263219 3.73879247-1.40869981-3.40082641 9.0263219-3.73879248.39687545.95808199 3.26801818-3.56257098-4.8296789-.20825432.39687163.95807275-.0005134.000007-2.48202202 1.02783823-6.54378725 2.71042801-1.40869813-3.40030756 9.02580758-3.7387851.39687545.958082.9828828-1.52962905 1.90117818-2.96053684z"/></g></svg>