<svg xmlns="http://www.w3.org/2000/svg" viewBox="0 0 202.65263 298.1011"><path fill="#001c98" stroke="#ffe367" stroke-linecap="round" stroke-linejoin="round" stroke-width="12" d="M145.44703 5.9998194 62.89548 20.231823l12.988229 32.915021h.01162C52.52399 76.457013 26.325255 122.97203 13.661974 161.42886a95.30895 93.954107 0 0 0-7.6099038 35.77353c-.0011.0233-.0034.0468-.0034.0705a95.30895 93.954107 0 0 0-.03112.87485 95.30895 93.954107 0 0 0 .0082.19154c-.09288 3.30472.06672 6.35728.5180727 9.0976A95.30895 93.954107 0 0 0 101.32561 292.1011a95.30895 93.954107 0 0 0 94.78386-84.67229c.44951-2.73306.60953-5.77704.5181-9.07139a95.30895 93.954107 0 0 0 .008-.20948 95.30895 93.954107 0 0 0-7.86187-37.35593c-12.99327-39.09112-39.81244-86.294957-63.39292-108.995818h.008z"/><path fill="none" stroke="#ffe367" stroke-linecap="round" stroke-linejoin="round" stroke-width="12" d="M13.661974 161.42886c87.663636 130.67224 0 0 175.111726-.63685"/></svg>